Coordinates
version=1
nRows=17
nColumns=36
inDegrees=yes

Units are S.I. units (second, meters, Newtons, ...)
If the header above contains a line with 'inDegrees', this indicates whether rotational values are in degrees (yes) or radians (no).

endheader
time	pelvis_tilt	pelvis_list	pelvis_rotation	pelvis_tx	pelvis_ty	pelvis_tz	hip_flexion_r	hip_adduction_r	hip_rotation_r	knee_angle_r	knee_angle_r_beta	ankle_angle_r	subtalar_angle_r	mtp_angle_r	hip_flexion_l	hip_adduction_l	hip_rotation_l	knee_angle_l	knee_angle_l_beta	ankle_angle_l	subtalar_angle_l	mtp_angle_l	lumbar_extension	lumbar_bending	lumbar_rotation	arm_flex_r	arm_add_r	arm_rot_r	elbow_flex_r	pro_sup_r	arm_flex_l	arm_add_l	arm_rot_l	elbow_flex_l	pro_sup_l
      0.00000000	     -1.14828704	     -1.02439485	     -0.98428805	     -0.97261049	      1.25750009	     -0.05845252	     -1.95888571	      0.39008105	     -0.35813866	      3.99709192	      0.06976241	     -0.02209441	    -12.17442201	     -5.78731879	     -1.29801801	     -3.57391616	     -3.48745122	      7.01354269	      0.12240941	      8.27540298	     -0.59810603	     -5.78731879	     -7.93099887	      2.26696439	     -1.53141358	     11.64823467	     -8.12238227	     27.10189826	     48.15466306	     82.08398785	      9.43145589	     -5.23589291	     19.42952077	     50.07779866	     79.51733199
      0.00416670	     -1.74102374	     -0.00641047	     -0.67719966	     -0.97278406	      1.26000679	     -0.05912354	     -0.94773182	     -0.47424170	     -0.61642426	      4.58454090	      0.08001533	      2.98416695	     -9.74319449	     -5.99644400	     -0.56013557	     -2.01399172	     -3.46207484	      6.61015244	      0.11536892	      7.86661708	      0.76210785	     -5.99644400	     -7.49820213	      1.12967011	     -1.29057560	     11.13194705	     -7.89776442	     26.09180199	     48.13852208	     81.64921249	     10.23277504	     -4.97930187	     18.77377199	     49.30667713	     79.23032577
      0.00833330	     -2.25080253	      0.96974467	     -1.07256189	     -0.97330716	      1.25799604	     -0.05632722	     -0.75731720	     -1.36718291	     -1.63509723	      3.73570104	      0.06520028	      3.13889481	     -8.88495330	     -6.40784051	     -0.38457739	     -1.10125318	     -4.20207004	      5.82966941	      0.10174693	      7.46994977	      1.31845557	     -6.40784051	     -7.01071866	     -0.30475277	     -0.33631844	     10.71834286	     -7.79773115	     24.65865065	     48.73287078	     87.54630721	     10.80443684	     -5.91882119	     19.79422179	     49.41718369	     82.27195138
      0.01250000	     -1.86012716	      1.36248055	     -1.15285782	     -0.97368913	      1.26124906	     -0.05720819	     -1.55264915	     -1.87575778	     -2.00591501	      2.93226219	      0.05117763	      3.18447654	     -8.00478256	     -6.48880250	     -1.37560184	     -0.60618385	     -4.42395462	      4.64807591	      0.08112423	      6.77795305	      1.33801889	     -6.48880250	     -7.58803318	     -0.81166199	     -0.07197748	     10.73389210	     -7.82956778	     24.28691661	     48.87003046	     86.92101152	     11.03983679	     -6.33769901	     19.74030055	     50.12017146	     81.75895801
      0.01666670	     -1.64072498	      1.51780506	     -1.16024004	     -0.97346461	      1.26052179	     -0.05747942	     -2.09124963	     -2.08266392	     -2.26178966	      2.36562961	      0.04128803	      3.11318709	     -7.53518578	     -6.60148763	     -1.94531184	     -0.29560560	     -4.45353242	      4.01390191	      0.07005580	      6.32898528	      1.20918517	     -6.60148763	     -7.99658427	     -0.94209709	      0.06208012	     10.60574973	     -7.82535797	     23.78858404	     49.47494573	     85.68487875	     11.06411551	     -6.47099768	     19.65047149	     50.75097771	     80.78841433
      0.02083330	     -1.32333896	      1.54107986	     -1.12912729	     -0.97547220	      1.26321927	     -0.05711041	     -2.60659099	     -2.07881779	     -2.29839318	      1.92476500	      0.03359349	      2.98847384	     -7.35662886	     -6.75280450	     -2.40464469	     -0.22538243	     -4.30930393	      3.58229767	      0.06252289	      5.93629791	      1.39986427	     -6.75280450	     -8.52558911	     -0.97764348	      0.38401774	     10.59957968	     -7.91055137	     23.38558796	     49.92766685	     84.53747707	     11.29659456	     -6.48791361	     19.84198907	     51.24285039	     80.43951056
      0.02500000	     -1.28466110	      1.52655930	     -1.01743092	     -0.97516157	      1.26134208	     -0.05678955	     -2.75570655	     -2.02287807	     -2.18511490	      1.64556401	      0.02872051	      2.81553792	     -7.43131289	     -7.05118658	     -2.50064372	     -0.24552300	     -4.43387739	      3.38279194	      0.05904086	      5.62593836	      1.56835009	     -7.05118658	     -8.60804328	     -0.97859896	      0.57011321	     10.32922309	     -7.69924373	     21.81397551	     50.31626802	     88.73158775	     11.26167261	     -6.15397571	     18.42185115	     51.57163040	     86.50784790
      0.02916670	     -1.17121662	      1.54642463	     -0.88133617	     -0.97584289	      1.26356498	     -0.05466374	     -2.94153637	     -1.95369423	     -2.21308396	      1.39952488	      0.02442632	      2.66820472	     -7.34094450	     -7.17901399	     -2.61971681	     -0.24532036	     -4.22214138	      3.17543106	      0.05542173	      5.26930665	      1.67330246	     -7.17901399	     -8.83641683	     -1.10182978	      0.60801058	     10.41608236	     -7.65725061	     21.97311655	     50.52197346	     86.43417232	     11.33364364	     -6.17302662	     18.23389256	     51.96558892	     84.66696544
      0.03333330	     -1.03904306	      1.50019707	     -0.79808576	     -0.97586961	      1.26064917	     -0.05537758	     -3.10098141	     -1.86462412	     -2.37362794	      1.29154607	      0.02254173	      2.72496642	     -7.24285888	     -7.18316089	     -2.71845397	     -0.32108555	     -4.23519774	      3.10876968	      0.05425827	      5.09790225	      1.94114040	     -7.18316089	     -9.02958439	     -1.09102287	      0.58560664	     10.41725618	     -7.64546097	     21.71369190	     51.04723027	     85.83324544	     11.34002678	     -6.17726302	     17.82656849	     52.39124797	     84.20017532
      0.03750000	     -0.89293705	      1.44632138	     -0.70956811	     -0.97571990	      1.25895839	     -0.05459424	     -3.26933543	     -1.73810214	     -2.25614148	      1.25499639	      0.02190382	      2.50337881	     -7.80890550	     -7.32209005	     -2.82824294	     -0.44391217	     -4.31691189	      3.13260251	      0.05467423	      5.04855798	      2.08611882	     -7.32209005	     -9.27562181	     -1.12970777	      0.57942038	     10.38997917	     -7.57195015	     21.20015796	     51.60036849	     86.98216823	     11.43551582	     -6.24280675	     17.38119648	     52.79791951	     85.81578098
      0.04166670	     -0.73944972	      1.38188741	     -0.60986329	     -0.97492025	      1.26030653	     -0.05518759	     -3.50455575	     -1.63195513	     -2.44365876	      1.21677558	      0.02123674	      2.49668657	     -7.87066722	     -7.40239672	     -3.07005234	     -0.57973544	     -4.15226702	      3.03379473	      0.05294971	      4.94659471	      2.18050294	     -7.40239672	     -9.43738970	     -1.11459741	      0.48050571	     10.30159068	     -7.70002395	     21.74843775	     52.31643144	     81.91307244	     11.45330820	     -6.45765776	     17.86876416	     53.37707388	     80.80665098
      0.04583330	     -0.56719863	      1.28591201	     -0.61558540	     -0.97453927	      1.26107079	     -0.05498557	     -3.76003959	     -1.48956495	     -2.39546041	      1.14931678	      0.02005936	      2.31814701	     -8.16738477	     -7.43993695	     -3.34291443	     -0.73968829	     -4.29334687	      2.88842745	      0.05041257	      4.87520106	      2.38338586	     -7.43993695	     -9.67037979	     -1.05045740	      0.43788799	     10.29522678	     -7.82935949	     22.05511896	     52.92888812	     80.08247244	     11.47987439	     -6.60584492	     18.13281815	     53.76945869	     78.77741258
      0.05000000	     -0.69315330	      1.21879958	     -0.60576515	     -0.97451399	      1.26013281	     -0.05611219	     -3.64748878	     -1.41953698	     -2.59871842	      1.13641963	      0.01983426	      2.34852315	     -8.01611761	     -7.47336783	     -3.22370613	     -0.83011903	     -4.38141434	      2.81364322	      0.04910734	      4.87027315	      2.61305847	     -7.47336783	     -9.54876408	     -0.99572607	      0.55204284	      9.92210056	     -7.65520754	     20.30124837	     53.37594946	     86.62576422	     11.37052909	     -6.37997781	     16.81071410	     54.02723918	     84.89953575
      0.05416670	     -0.73159942	      1.22467974	     -0.56792181	     -0.97393660	      1.26481601	     -0.05687743	     -3.64433819	     -1.45883621	     -2.56231864	      1.08528635	      0.01894182	      2.28677220	     -7.96621676	     -7.47344399	     -3.23164055	     -0.80298713	     -4.43911656	      2.69893456	      0.04710529	      4.68610645	      2.67966209	     -7.47344399	     -9.47132520	     -0.98239527	      0.38881620	      9.97139939	     -7.69791519	     20.23920341	     53.47262478	     86.61251590	     11.35583463	     -6.39598710	     16.80454725	     53.98723927	     84.89586368
      0.05833330	     -0.69108968	      1.21201131	     -0.56255959	     -0.97320614	      1.26195274	     -0.05626692	     -3.77941599	     -1.46092877	     -2.47396335	      0.98456679	      0.01718393	      2.30314035	     -7.85904544	     -7.48301467	     -3.39956268	     -0.80284017	     -4.60008016	      2.44432663	      0.04266155	      4.54677148	      2.84026069	     -7.48301467	     -9.50267210	     -0.94435495	      0.34885656	      9.85255522	     -7.77862411	     20.49461171	     54.29091580	     82.11558395	     11.17647954	     -6.46608279	     16.93582310	     54.33443689	     80.48217607
      0.06250000	     -0.68670206	      1.21512895	     -0.53131166	     -0.97337422	      1.26167954	     -0.05800289	     -3.85106917	     -1.52763374	     -2.64749854	      0.93681026	      0.01635042	      2.54994727	     -7.27730500	     -7.49101392	     -3.49646332	     -0.75049760	     -4.68344651	      2.21971496	      0.03874133	      4.46840368	      2.97215163	     -7.49101392	     -9.47738471	     -0.90043494	      0.23727098	      9.84722170	     -8.00864796	     20.93992600	     54.98365835	     78.47774204	     11.08305496	     -6.57890056	     17.36629746	     54.84986522	     76.86762198
      0.06666670	     -0.82462820	      1.22592516	     -0.52033015	     -0.97373698	      1.26365510	     -0.05642280	     -3.74205297	     -1.55170561	     -2.59663229	      0.87807749	      0.01532534	      2.48759384	     -7.28778110	     -7.49640389	     -3.42062920	     -0.73003815	     -4.89554013	      2.05458541	      0.03585928	      4.38176260	      3.04284360	     -7.49640389	     -9.30791305	     -0.90570981	      0.28960455	      9.66833565	     -7.76992061	     19.45772125	     55.21511369	     85.94781782	     11.01803328	     -6.42402980	     16.42214392	     54.76779539	     83.33590529
